<svg xmlns="http://www.w3.org/2000/svg" width="17" height="33" viewBox="0 0 17 33">
  <metadata><?xpacket begin="﻿" id="W5M0MpCehiHzreSzNTczkc9d"?>
<x:xmpmeta xmlns:x="adobe:ns:meta/" x:xmptk="Adobe XMP Core 5.6-c142 79.160924, 2017/07/13-01:06:39        ">
   <rdf:RDF xmlns:rdf="http://www.w3.org/1999/02/22-rdf-syntax-ns#">
      <rdf:Description rdf:about=""/>
   </rdf:RDF>
</x:xmpmeta>
                                                                                                    
                                                                                                    
                                                                                                    
                                                                                                    
                                                                                                    
                                                                                                    
                                                                                                    
                                                                                                    
                                                                                                    
                                                                                                    
                                                                                                    
                                                                                                    
                                                                                                    
                                                                                                    
                                                                                                    
                                                                                                    
                                                                                                    
                                                                                                    
                                                                                                    
                                                                                                    
                           
<?xpacket end="w"?></metadata>
<defs>
    <style>
      .cls-1 {
        fill: #fff;
        fill-rule: evenodd;
      }
    </style>
  </defs>
  <path id="Arrow_Thin_Right._Attribute_as_Daniel_Bruce_from_Flaticon.com" data-name="Arrow Thin Right. Attribute as Daniel Bruce from Flaticon.com" class="cls-1" d="M0.373,30.751a1.376,1.376,0,0,0,0,1.879,1.224,1.224,0,0,0,1.791,0L16.631,17.45a1.376,1.376,0,0,0,0-1.88L2.163,0.39A1.225,1.225,0,0,0,.373.39a1.376,1.376,0,0,0,0,1.879L13.567,16.51Z"/>
  <path id="Arrow_Thin_Right._Attribute_as_Daniel_Bruce_from_Flaticon.com-2" data-name="Arrow Thin Right. Attribute as Daniel Bruce from Flaticon.com" class="cls-1" d="M-1126.37,3.25a1.385,1.385,0,0,0,0-1.879,1.224,1.224,0,0,0-1.79,0l-14.47,15.18a1.365,1.365,0,0,0,0,1.88l14.47,15.18a1.223,1.223,0,0,0,1.79,0,1.384,1.384,0,0,0,0-1.879l-13.2-14.241Z"/>
</svg>
